<svg xmlns="http://www.w3.org/2000/svg" xmlns:xlink="http://www.w3.org/1999/xlink" width="500" zoomAndPan="magnify" viewBox="0 0 375 374.999991" height="500" preserveAspectRatio="xMidYMid meet" version="1.0"><defs><g/><clipPath id="f093e13313"><path d="M 0 169 L 123 169 L 123 225 L 0 225 Z M 0 169 " clip-rule="nonzero"/></clipPath><clipPath id="4708794501"><path d="M 4.84375 66.273438 L 389.074219 191.921875 L 327.296875 380.828125 L -56.929688 255.179688 Z M 4.84375 66.273438 " clip-rule="nonzero"/></clipPath><clipPath id="9f07c4b63c"><path d="M 4.84375 66.273438 L 389.074219 191.921875 L 327.296875 380.828125 L -56.929688 255.179688 Z M 4.84375 66.273438 " clip-rule="nonzero"/></clipPath><clipPath id="947b27c1aa"><path d="M 0 169 L 71 169 L 71 286 L 0 286 Z M 0 169 " clip-rule="nonzero"/></clipPath><clipPath id="e6dd31fb61"><path d="M 4.84375 66.273438 L 389.074219 191.921875 L 327.296875 380.828125 L -56.929688 255.179688 Z M 4.84375 66.273438 " clip-rule="nonzero"/></clipPath><clipPath id="35c8be0fc7"><path d="M 4.84375 66.273438 L 389.074219 191.921875 L 327.296875 380.828125 L -56.929688 255.179688 Z M 4.84375 66.273438 " clip-rule="nonzero"/></clipPath><clipPath id="c8d4f7b214"><path d="M 52 230 L 88 230 L 88 273 L 52 273 Z M 52 230 " clip-rule="nonzero"/></clipPath><clipPath id="bfd8c8d80d"><path d="M 4.84375 66.273438 L 389.074219 191.921875 L 327.296875 380.828125 L -56.929688 255.179688 Z M 4.84375 66.273438 " clip-rule="nonzero"/></clipPath><clipPath id="4fbe2a85fb"><path d="M 4.84375 66.273438 L 389.074219 191.921875 L 327.296875 380.828125 L -56.929688 255.179688 Z M 4.84375 66.273438 " clip-rule="nonzero"/></clipPath><clipPath id="78efb64369"><path d="M 0 169 L 98 169 L 98 273 L 0 273 Z M 0 169 " clip-rule="nonzero"/></clipPath><clipPath id="b3f1618de1"><path d="M 4.84375 66.273438 L 389.074219 191.921875 L 327.296875 380.828125 L -56.929688 255.179688 Z M 4.84375 66.273438 " clip-rule="nonzero"/></clipPath><clipPath id="40a324d527"><path d="M 4.84375 66.273438 L 389.074219 191.921875 L 327.296875 380.828125 L -56.929688 255.179688 Z M 4.84375 66.273438 " clip-rule="nonzero"/></clipPath><clipPath id="7444d42c6a"><path d="M 99 191 L 375 191 L 375 289 L 99 289 Z M 99 191 " clip-rule="nonzero"/></clipPath><clipPath id="35a9e8af91"><path d="M 4.84375 66.273438 L 389.074219 191.921875 L 327.296875 380.828125 L -56.929688 255.179688 Z M 4.84375 66.273438 " clip-rule="nonzero"/></clipPath><clipPath id="d6fd823862"><path d="M 4.84375 66.273438 L 389.074219 191.921875 L 327.296875 380.828125 L -56.929688 255.179688 Z M 4.84375 66.273438 " clip-rule="nonzero"/></clipPath><clipPath id="129d1111e1"><path d="M 232 290 L 314 290 L 314 315 L 232 315 Z M 232 290 " clip-rule="nonzero"/></clipPath><clipPath id="1466e1b9e0"><path d="M 4.84375 66.273438 L 389.074219 191.921875 L 327.296875 380.828125 L -56.929688 255.179688 Z M 4.84375 66.273438 " clip-rule="nonzero"/></clipPath><clipPath id="964967718f"><path d="M 4.84375 66.273438 L 389.074219 191.921875 L 327.296875 380.828125 L -56.929688 255.179688 Z M 4.84375 66.273438 " clip-rule="nonzero"/></clipPath></defs><g clip-path="url(#f093e13313)"><g clip-path="url(#4708794501)"><g clip-path="url(#9f07c4b63c)"><path fill="#ff914d" d="M 95.027344 224.132812 C 94.976562 224.117188 94.929688 224.101562 94.882812 224.082031 L -28.003906 173.308594 C -28.953125 172.917969 -29.449219 171.871094 -29.152344 170.886719 C -28.859375 169.90625 -27.867188 169.304688 -26.859375 169.503906 L 120.984375 198.234375 C 121.730469 198.382812 122.332031 198.9375 122.53125 199.667969 C 122.730469 200.402344 122.496094 201.1875 121.925781 201.691406 L 96.96875 223.730469 C 96.4375 224.203125 95.695312 224.351562 95.027344 224.132812 Z M -8.066406 177.222656 L 95.257812 219.910156 L 116.242188 201.378906 Z M -8.066406 177.222656 " fill-opacity="1" fill-rule="nonzero"/></g></g></g><g clip-path="url(#947b27c1aa)"><g clip-path="url(#e6dd31fb61)"><g clip-path="url(#35c8be0fc7)"><path fill="#ff914d" d="M 34.914062 285.121094 C 34.445312 284.96875 34.042969 284.640625 33.792969 284.199219 L -28.984375 172.441406 C -29.429688 171.640625 -29.277344 170.640625 -28.613281 170.011719 C -27.949219 169.382812 -26.941406 169.285156 -26.167969 169.777344 L 69.167969 230.535156 C 69.617188 230.820312 69.933594 231.269531 70.046875 231.789062 C 70.160156 232.304688 70.066406 232.847656 69.78125 233.292969 L 37.222656 284.296875 C 36.84375 284.886719 36.183594 285.238281 35.480469 285.21875 C 35.285156 285.210938 35.097656 285.179688 34.914062 285.121094 Z M -21.601562 177.425781 L 35.648438 279.339844 L 65.335938 232.828125 Z M -21.601562 177.425781 " fill-opacity="1" fill-rule="nonzero"/></g></g></g><g clip-path="url(#c8d4f7b214)"><g clip-path="url(#bfd8c8d80d)"><g clip-path="url(#4fbe2a85fb)"><path fill="#ff914d" d="M 85.011719 272.855469 C 84.890625 272.816406 84.773438 272.765625 84.660156 272.703125 L 53.453125 255.382812 C 52.972656 255.117188 52.621094 254.660156 52.488281 254.125 C 52.351562 253.589844 52.441406 253.027344 52.738281 252.5625 L 66.414062 231.140625 C 66.808594 230.523438 67.507812 230.171875 68.238281 230.222656 C 68.96875 230.277344 69.613281 230.722656 69.917969 231.394531 L 87.449219 270.132812 C 87.804688 270.917969 87.617188 271.839844 86.984375 272.421875 C 86.445312 272.921875 85.6875 273.078125 85.011719 272.855469 Z M 57.25 252.921875 L 81.320312 266.28125 L 67.796875 236.402344 Z M 57.25 252.921875 " fill-opacity="1" fill-rule="nonzero"/></g></g></g><g clip-path="url(#78efb64369)"><g clip-path="url(#b3f1618de1)"><g clip-path="url(#40a324d527)"><path fill="#ff914d" d="M 85.011719 272.855469 C 84.488281 272.683594 84.046875 272.304688 83.8125 271.78125 L 66.523438 233.582031 L -28.3125 173.148438 C -29.1875 172.589844 -29.488281 171.460938 -29.011719 170.539062 C -28.535156 169.621094 -27.441406 169.214844 -26.476562 169.617188 L 96.410156 220.386719 C 97.296875 220.753906 97.796875 221.699219 97.605469 222.636719 L 87.585938 271.359375 C 87.414062 272.207031 86.710938 272.847656 85.851562 272.941406 C 85.5625 272.976562 85.273438 272.941406 85.011719 272.855469 Z M -7.027344 181.976562 L 69.171875 230.535156 C 69.5 230.742188 69.757812 231.042969 69.917969 231.394531 L 84.914062 264.527344 L 93.359375 223.453125 Z M -7.027344 181.976562 " fill-opacity="1" fill-rule="nonzero"/></g></g></g><g clip-path="url(#7444d42c6a)"><g clip-path="url(#35a9e8af91)"><g clip-path="url(#d6fd823862)"><path fill="#ff914d" d="M 100.585938 280.441406 C 99.605469 280.121094 99.023438 279.097656 99.265625 278.078125 C 99.523438 277.007812 100.597656 276.34375 101.671875 276.597656 C 101.734375 276.613281 107.898438 278.074219 118.324219 279.71875 C 119.414062 279.890625 120.15625 280.914062 119.984375 282.003906 C 119.8125 283.09375 118.789062 283.839844 117.699219 283.664062 C 107.105469 281.992188 101 280.546875 100.746094 280.484375 C 100.691406 280.472656 100.636719 280.457031 100.585938 280.441406 Z M 134.261719 285.867188 C 133.378906 285.578125 132.789062 284.703125 132.898438 283.746094 C 133.023438 282.648438 134.011719 281.859375 135.109375 281.984375 C 140.671875 282.609375 146.34375 283.132812 151.96875 283.53125 C 153.074219 283.609375 153.902344 284.5625 153.824219 285.664062 C 153.746094 286.765625 152.789062 287.59375 151.6875 287.515625 C 146.007812 287.113281 140.277344 286.585938 134.660156 285.953125 C 134.523438 285.9375 134.386719 285.90625 134.261719 285.867188 Z M 168.199219 288.273438 C 167.378906 288.007812 166.796875 287.222656 166.824219 286.316406 C 166.855469 285.214844 167.777344 284.347656 168.878906 284.378906 C 174.539062 284.542969 180.230469 284.589844 185.800781 284.511719 C 186.902344 284.496094 187.8125 285.378906 187.824219 286.480469 C 187.839844 287.585938 186.957031 288.492188 185.855469 288.507812 C 180.230469 288.585938 174.476562 288.539062 168.761719 288.375 C 168.566406 288.367188 168.375 288.332031 168.199219 288.273438 Z M 202.199219 287.789062 C 201.441406 287.539062 200.875 286.851562 200.824219 286.007812 C 200.761719 284.90625 201.597656 283.960938 202.703125 283.894531 C 208.367188 283.554688 214.035156 283.082031 219.546875 282.484375 C 220.640625 282.367188 221.628906 283.15625 221.746094 284.253906 C 221.867188 285.351562 221.074219 286.335938 219.976562 286.457031 C 214.402344 287.0625 208.667969 287.542969 202.9375 287.882812 C 202.679688 287.898438 202.429688 287.863281 202.199219 287.789062 Z M 235.984375 284.101562 C 235.296875 283.875 234.753906 283.28125 234.628906 282.519531 C 234.453125 281.429688 235.191406 280.40625 236.28125 280.230469 C 241.886719 279.320312 247.464844 278.257812 252.859375 277.0625 C 253.9375 276.824219 255.003906 277.503906 255.242188 278.582031 C 255.480469 279.660156 254.800781 280.726562 253.722656 280.960938 C 248.253906 282.171875 242.597656 283.25 236.917969 284.171875 C 236.597656 284.226562 236.277344 284.195312 235.984375 284.101562 Z M 269.140625 276.746094 C 268.53125 276.546875 268.027344 276.058594 267.839844 275.398438 C 267.539062 274.335938 268.148438 273.230469 269.210938 272.925781 C 274.660156 271.363281 280.054688 269.625 285.246094 267.753906 C 286.28125 267.378906 287.425781 267.917969 287.800781 268.957031 C 288.175781 269.992188 287.636719 271.140625 286.601562 271.515625 C 281.328125 273.414062 275.847656 275.179688 270.3125 276.765625 C 269.914062 276.882812 269.507812 276.867188 269.140625 276.746094 Z M 301.054688 265.210938 C 300.535156 265.042969 300.089844 264.664062 299.847656 264.125 C 299.402344 263.117188 299.855469 261.933594 300.863281 261.488281 C 306.023438 259.195312 311.097656 256.703125 315.957031 254.078125 C 316.925781 253.554688 318.140625 253.917969 318.664062 254.886719 C 319.1875 255.859375 318.828125 257.070312 317.855469 257.59375 C 312.910156 260.269531 307.738281 262.804688 302.488281 265.140625 C 302.015625 265.347656 301.507812 265.359375 301.054688 265.210938 Z M 330.867188 249.074219 C 330.449219 248.9375 330.074219 248.664062 329.816406 248.265625 C 329.214844 247.339844 329.476562 246.101562 330.398438 245.5 C 335.097656 242.441406 339.695312 239.160156 344.0625 235.75 C 344.933594 235.074219 346.1875 235.226562 346.867188 236.097656 C 347.546875 236.96875 347.390625 238.222656 346.519531 238.902344 C 342.066406 242.378906 337.375 245.726562 332.578125 248.847656 C 332.054688 249.191406 331.421875 249.253906 330.867188 249.074219 Z M 357.5625 228.222656 C 357.253906 228.121094 356.960938 227.945312 356.722656 227.6875 C 355.972656 226.878906 356.015625 225.617188 356.820312 224.863281 C 360.894531 221.070312 364.84375 217.042969 368.574219 212.898438 C 369.3125 212.078125 370.574219 212.011719 371.394531 212.75 C 372.214844 213.488281 372.28125 214.75 371.542969 215.570312 C 367.738281 219.800781 363.703125 223.910156 359.546875 227.785156 C 358.996094 228.300781 358.230469 228.441406 357.5625 228.222656 Z M 380.210938 203.050781 C 380.007812 202.984375 379.8125 202.882812 379.628906 202.75 C 378.75 202.082031 378.574219 200.832031 379.238281 199.949219 C 381.121094 197.449219 382.972656 194.867188 384.746094 192.265625 C 385.367188 191.351562 386.609375 191.117188 387.519531 191.738281 C 388.433594 192.359375 388.667969 193.601562 388.046875 194.511719 C 386.238281 197.167969 384.347656 199.804688 382.425781 202.355469 C 381.902344 203.054688 381.003906 203.3125 380.210938 203.050781 Z M 380.210938 203.050781 " fill-opacity="1" fill-rule="nonzero"/></g></g></g><g clip-path="url(#129d1111e1)"><g clip-path="url(#1466e1b9e0)"><g clip-path="url(#964967718f)"><path fill="#ff914d" d="M 234.148438 314.113281 C 233.425781 313.875 232.875 313.238281 232.78125 312.4375 C 232.65625 311.339844 233.445312 310.351562 234.542969 310.226562 C 257.117188 307.660156 276.8125 303.285156 294.757812 296.855469 C 300.183594 294.910156 305.46875 292.757812 310.464844 290.453125 C 311.46875 289.992188 312.652344 290.429688 313.117188 291.433594 C 313.578125 292.4375 313.140625 293.621094 312.136719 294.082031 C 307.035156 296.433594 301.640625 298.628906 296.105469 300.613281 C 277.867188 307.152344 257.878906 311.59375 234.992188 314.195312 C 234.699219 314.230469 234.410156 314.199219 234.148438 314.113281 Z M 234.148438 314.113281 " fill-opacity="1" fill-rule="nonzero"/></g></g></g><g fill="#ffffff" fill-opacity="1"><g transform="translate(74.771166, 197.094647)"><g><path d="M 2.15625 -29.640625 L 12.96875 -29.640625 C 15.988281 -29.640625 18.429688 -28.859375 20.296875 -27.296875 C 22.160156 -25.742188 23.09375 -23.484375 23.09375 -20.515625 C 23.09375 -17.546875 22.144531 -15.210938 20.25 -13.515625 C 18.363281 -11.828125 15.9375 -10.984375 12.96875 -10.984375 L 8.90625 -10.984375 L 8.90625 0 L 2.15625 0 Z M 8.90625 -16.375 L 10.8125 -16.375 C 12.320312 -16.375 13.5625 -16.679688 14.53125 -17.296875 C 15.5 -17.910156 15.984375 -18.910156 15.984375 -20.296875 C 15.984375 -21.710938 15.5 -22.722656 14.53125 -23.328125 C 13.5625 -23.941406 12.320312 -24.25 10.8125 -24.25 L 8.90625 -24.25 Z M 8.90625 -16.375 "/></g></g></g><g fill="#ffffff" fill-opacity="1"><g transform="translate(96.392903, 197.094647)"><g><path d="M 17.203125 -29.640625 L 29.171875 0 L 21.90625 0 L 19.71875 -5.921875 L 8.4375 -5.921875 L 6.25 0 L -1 0 L 10.953125 -29.640625 Z M 17.421875 -11.859375 L 14.125 -20.46875 L 14.046875 -20.46875 L 10.734375 -11.859375 Z M 17.421875 -11.859375 "/></g></g></g><g fill="#ffffff" fill-opacity="1"><g transform="translate(124.551504, 197.094647)"><g><path d="M 2.15625 -29.640625 L 12.96875 -29.640625 C 15.988281 -29.640625 18.429688 -28.859375 20.296875 -27.296875 C 22.160156 -25.742188 23.09375 -23.484375 23.09375 -20.515625 C 23.09375 -17.546875 22.144531 -15.210938 20.25 -13.515625 C 18.363281 -11.828125 15.9375 -10.984375 12.96875 -10.984375 L 8.90625 -10.984375 L 8.90625 0 L 2.15625 0 Z M 8.90625 -16.375 L 10.8125 -16.375 C 12.320312 -16.375 13.5625 -16.679688 14.53125 -17.296875 C 15.5 -17.910156 15.984375 -18.910156 15.984375 -20.296875 C 15.984375 -21.710938 15.5 -22.722656 14.53125 -23.328125 C 13.5625 -23.941406 12.320312 -24.25 10.8125 -24.25 L 8.90625 -24.25 Z M 8.90625 -16.375 "/></g></g></g><g fill="#ffffff" fill-opacity="1"><g transform="translate(148.471949, 197.094647)"><g><path d="M 19.109375 -29.640625 L 19.109375 -23.703125 L 8.90625 -23.703125 L 8.90625 -17.8125 L 18.671875 -17.8125 L 18.671875 -11.890625 L 8.90625 -11.890625 L 8.90625 -5.921875 L 19.109375 -5.921875 L 19.109375 0 L 2.15625 0 L 2.15625 -29.640625 Z M 19.109375 -29.640625 "/></g></g></g><g fill="#ffffff" fill-opacity="1"><g transform="translate(169.303567, 197.094647)"><g><path d="M 2.15625 -29.640625 L 12.75 -29.640625 C 15.601562 -29.640625 17.925781 -28.878906 19.71875 -27.359375 C 21.519531 -25.835938 22.421875 -23.660156 22.421875 -20.828125 C 22.421875 -18.648438 21.875 -16.820312 20.78125 -15.34375 C 19.6875 -13.875 18.207031 -12.84375 16.34375 -12.25 L 26.546875 0 L 17.953125 0 L 8.90625 -11.703125 L 8.90625 0 L 2.15625 0 Z M 8.90625 -16.484375 L 9.703125 -16.484375 C 10.328125 -16.484375 10.851562 -16.492188 11.28125 -16.515625 C 11.707031 -16.546875 12.195312 -16.628906 12.75 -16.765625 C 13.300781 -16.910156 13.742188 -17.113281 14.078125 -17.375 C 14.410156 -17.644531 14.695312 -18.03125 14.9375 -18.53125 C 15.175781 -19.039062 15.296875 -19.65625 15.296875 -20.375 C 15.296875 -21.09375 15.175781 -21.703125 14.9375 -22.203125 C 14.695312 -22.703125 14.410156 -23.082031 14.078125 -23.34375 C 13.742188 -23.613281 13.300781 -23.816406 12.75 -23.953125 C 12.195312 -24.097656 11.707031 -24.179688 11.28125 -24.203125 C 10.851562 -24.234375 10.328125 -24.25 9.703125 -24.25 L 8.90625 -24.25 Z M 8.90625 -16.484375 "/></g></g></g><g fill="#ff931e" fill-opacity="1"><g transform="translate(193.585845, 197.094647)"><g><path d="M 0.28125 -23.703125 L 0.28125 -29.640625 L 21.125 -29.640625 L 21.125 -23.703125 L 14.078125 -23.703125 L 14.078125 0 L 7.328125 0 L 7.328125 -23.703125 Z M 0.28125 -23.703125 "/></g></g></g><g fill="#ff931e" fill-opacity="1"><g transform="translate(214.992129, 197.094647)"><g><path d="M 2.15625 -29.640625 L 12.75 -29.640625 C 15.601562 -29.640625 17.925781 -28.878906 19.71875 -27.359375 C 21.519531 -25.835938 22.421875 -23.660156 22.421875 -20.828125 C 22.421875 -18.648438 21.875 -16.820312 20.78125 -15.34375 C 19.6875 -13.875 18.207031 -12.84375 16.34375 -12.25 L 26.546875 0 L 17.953125 0 L 8.90625 -11.703125 L 8.90625 0 L 2.15625 0 Z M 8.90625 -16.484375 L 9.703125 -16.484375 C 10.328125 -16.484375 10.851562 -16.492188 11.28125 -16.515625 C 11.707031 -16.546875 12.195312 -16.628906 12.75 -16.765625 C 13.300781 -16.910156 13.742188 -17.113281 14.078125 -17.375 C 14.410156 -17.644531 14.695312 -18.03125 14.9375 -18.53125 C 15.175781 -19.039062 15.296875 -19.65625 15.296875 -20.375 C 15.296875 -21.09375 15.175781 -21.703125 14.9375 -22.203125 C 14.695312 -22.703125 14.410156 -23.082031 14.078125 -23.34375 C 13.742188 -23.613281 13.300781 -23.816406 12.75 -23.953125 C 12.195312 -24.097656 11.707031 -24.179688 11.28125 -24.203125 C 10.851562 -24.234375 10.328125 -24.25 9.703125 -24.25 L 8.90625 -24.25 Z M 8.90625 -16.484375 "/></g></g></g><g fill="#ff931e" fill-opacity="1"><g transform="translate(240.708402, 197.094647)"><g><path d="M 17.203125 -29.640625 L 29.171875 0 L 21.90625 0 L 19.71875 -5.921875 L 8.4375 -5.921875 L 6.25 0 L -1 0 L 10.953125 -29.640625 Z M 17.421875 -11.859375 L 14.125 -20.46875 L 14.046875 -20.46875 L 10.734375 -11.859375 Z M 17.421875 -11.859375 "/></g></g></g><g fill="#ff931e" fill-opacity="1"><g transform="translate(268.867003, 197.094647)"><g><path d="M 8.90625 -29.640625 L 8.90625 0 L 2.15625 0 L 2.15625 -29.640625 Z M 8.90625 -29.640625 "/></g></g></g><g fill="#ff931e" fill-opacity="1"><g transform="translate(279.92931, 197.094647)"><g><path d="M 8.90625 -29.640625 L 8.90625 -5.921875 L 19.109375 -5.921875 L 19.109375 0 L 2.15625 0 L 2.15625 -29.640625 Z M 8.90625 -29.640625 "/></g></g></g></svg>