<svg xmlns="http://www.w3.org/2000/svg" xmlns:xlink="http://www.w3.org/1999/xlink" width="500" zoomAndPan="magnify" viewBox="0 0 375 374.999991" height="500" preserveAspectRatio="xMidYMid meet" version="1.0"><defs><clipPath id="0f7ce781df"><path d="M 30 69 L 363 69 L 363 190 L 30 190 Z M 30 69 " clip-rule="nonzero"/></clipPath><clipPath id="fc2e7a9cd5"><path d="M 104.789062 -156.878906 L 946.667969 118.425781 L 811.464844 531.878906 L -30.414062 256.574219 Z M 104.789062 -156.878906 " clip-rule="nonzero"/></clipPath><clipPath id="751ba838eb"><path d="M 104.789062 -156.878906 L 946.667969 118.425781 L 811.464844 531.878906 L -30.414062 256.574219 Z M 104.789062 -156.878906 " clip-rule="nonzero"/></clipPath><clipPath id="c1f32d289d"><path d="M 30 69 L 248 69 L 248 323 L 30 323 Z M 30 69 " clip-rule="nonzero"/></clipPath><clipPath id="3478eb197e"><path d="M 104.789062 -156.878906 L 946.667969 118.425781 L 811.464844 531.878906 L -30.414062 256.574219 Z M 104.789062 -156.878906 " clip-rule="nonzero"/></clipPath><clipPath id="e9e9b0a8e2"><path d="M 104.789062 -156.878906 L 946.667969 118.425781 L 811.464844 531.878906 L -30.414062 256.574219 Z M 104.789062 -156.878906 " clip-rule="nonzero"/></clipPath><clipPath id="366583d857"><path d="M 208 202 L 287 202 L 287 296 L 208 296 Z M 208 202 " clip-rule="nonzero"/></clipPath><clipPath id="678135b8d8"><path d="M 104.789062 -156.878906 L 946.667969 118.425781 L 811.464844 531.878906 L -30.414062 256.574219 Z M 104.789062 -156.878906 " clip-rule="nonzero"/></clipPath><clipPath id="1a98e64b11"><path d="M 104.789062 -156.878906 L 946.667969 118.425781 L 811.464844 531.878906 L -30.414062 256.574219 Z M 104.789062 -156.878906 " clip-rule="nonzero"/></clipPath><clipPath id="9a9dbab5b3"><path d="M 30 69 L 309 69 L 309 296 L 30 296 Z M 30 69 " clip-rule="nonzero"/></clipPath><clipPath id="924cd2312d"><path d="M 104.789062 -156.878906 L 946.667969 118.425781 L 811.464844 531.878906 L -30.414062 256.574219 Z M 104.789062 -156.878906 " clip-rule="nonzero"/></clipPath><clipPath id="ac8bf62988"><path d="M 104.789062 -156.878906 L 946.667969 118.425781 L 811.464844 531.878906 L -30.414062 256.574219 Z M 104.789062 -156.878906 " clip-rule="nonzero"/></clipPath><clipPath id="025fc92b63"><path d="M 311 117 L 375 117 L 375 330 L 311 330 Z M 311 117 " clip-rule="nonzero"/></clipPath><clipPath id="d035d82017"><path d="M 104.789062 -156.878906 L 946.667969 118.425781 L 811.464844 531.878906 L -30.414062 256.574219 Z M 104.789062 -156.878906 " clip-rule="nonzero"/></clipPath><clipPath id="35673286b6"><path d="M 104.789062 -156.878906 L 946.667969 118.425781 L 811.464844 531.878906 L -30.414062 256.574219 Z M 104.789062 -156.878906 " clip-rule="nonzero"/></clipPath></defs><g clip-path="url(#0f7ce781df)"><g clip-path="url(#fc2e7a9cd5)"><g clip-path="url(#751ba838eb)"><path fill="#ff914d" d="M 302.28125 188.824219 C 302.175781 188.792969 302.074219 188.753906 301.972656 188.710938 L 32.851562 77.519531 C 30.773438 76.664062 29.683594 74.371094 30.332031 72.21875 C 30.980469 70.066406 33.148438 68.753906 35.355469 69.183594 L 359.125 132.105469 C 360.761719 132.425781 362.074219 133.644531 362.511719 135.246094 C 362.949219 136.855469 362.4375 138.574219 361.1875 139.675781 L 306.535156 187.945312 C 305.367188 188.976562 303.746094 189.304688 302.28125 188.824219 Z M 76.515625 86.09375 L 302.789062 179.578125 L 348.742188 138.996094 Z M 76.515625 86.09375 " fill-opacity="1" fill-rule="nonzero"/></g></g></g><g clip-path="url(#c1f32d289d)"><g clip-path="url(#3478eb197e)"><g clip-path="url(#e9e9b0a8e2)"><path fill="#ff914d" d="M 170.640625 322.382812 C 169.613281 322.046875 168.730469 321.335938 168.1875 320.367188 L 30.707031 75.617188 C 29.726562 73.871094 30.058594 71.675781 31.515625 70.300781 C 32.976562 68.921875 35.179688 68.710938 36.871094 69.789062 L 245.65625 202.839844 C 246.636719 203.464844 247.328125 204.453125 247.578125 205.585938 C 247.828125 206.71875 247.617188 207.90625 246.996094 208.882812 L 175.691406 320.578125 C 174.863281 321.875 173.417969 322.640625 171.882812 322.597656 C 171.453125 322.585938 171.039062 322.511719 170.640625 322.382812 Z M 46.875 86.539062 L 172.242188 309.722656 L 237.261719 207.867188 Z M 46.875 86.539062 " fill-opacity="1" fill-rule="nonzero"/></g></g></g><g clip-path="url(#366583d857)"><g clip-path="url(#678135b8d8)"><g clip-path="url(#1a98e64b11)"><path fill="#ff914d" d="M 280.347656 295.523438 C 280.085938 295.4375 279.832031 295.328125 279.582031 295.1875 L 211.238281 257.257812 C 210.183594 256.675781 209.417969 255.675781 209.121094 254.503906 C 208.824219 253.332031 209.023438 252.097656 209.675781 251.078125 L 239.621094 204.171875 C 240.484375 202.820312 242.019531 202.046875 243.621094 202.160156 C 245.21875 202.273438 246.628906 203.257812 247.292969 204.722656 L 285.691406 289.554688 C 286.46875 291.277344 286.054688 293.296875 284.667969 294.578125 C 283.492188 295.671875 281.828125 296.007812 280.347656 295.523438 Z M 219.550781 251.867188 L 272.269531 281.121094 L 242.648438 215.6875 Z M 219.550781 251.867188 " fill-opacity="1" fill-rule="nonzero"/></g></g></g><g clip-path="url(#9a9dbab5b3)"><g clip-path="url(#924cd2312d)"><g clip-path="url(#ac8bf62988)"><path fill="#ff914d" d="M 280.347656 295.523438 C 279.203125 295.148438 278.238281 294.3125 277.722656 293.167969 L 239.859375 209.519531 L 32.171875 77.164062 C 30.257812 75.949219 29.597656 73.46875 30.640625 71.457031 C 31.6875 69.445312 34.082031 68.554688 36.191406 69.433594 L 305.3125 180.621094 C 307.253906 181.425781 308.351562 183.492188 307.925781 185.546875 L 285.992188 292.246094 C 285.609375 294.105469 284.074219 295.503906 282.191406 295.714844 C 281.554688 295.785156 280.925781 295.714844 280.347656 295.523438 Z M 78.789062 96.5 L 245.660156 202.84375 C 246.375 203.300781 246.945312 203.953125 247.292969 204.730469 L 280.136719 277.289062 L 298.628906 187.332031 Z M 78.789062 96.5 " fill-opacity="1" fill-rule="nonzero"/></g></g></g><g clip-path="url(#025fc92b63)"><g clip-path="url(#d035d82017)"><g clip-path="url(#35673286b6)"><path fill="#ff914d" d="M 314.453125 312.132812 C 312.3125 311.433594 311.035156 309.195312 311.566406 306.960938 C 312.128906 304.613281 314.488281 303.160156 316.835938 303.722656 C 316.972656 303.75 330.472656 306.953125 353.300781 310.554688 C 355.691406 310.933594 357.316406 313.171875 356.941406 315.558594 C 356.566406 317.945312 354.324219 319.574219 351.9375 319.195312 C 328.734375 315.53125 315.363281 312.363281 314.804688 312.230469 C 314.6875 312.203125 314.570312 312.171875 314.453125 312.132812 Z M 388.203125 324.015625 C 386.273438 323.386719 384.984375 321.464844 385.222656 319.371094 C 385.492188 316.96875 387.65625 315.242188 390.058594 315.511719 C 402.246094 316.886719 414.667969 318.03125 426.988281 318.902344 C 429.398438 319.074219 431.214844 321.164062 431.042969 323.574219 C 430.871094 325.984375 428.78125 327.796875 426.367188 327.628906 C 413.925781 326.746094 401.382812 325.59375 389.078125 324.207031 C 388.773438 324.171875 388.480469 324.105469 388.203125 324.015625 Z M 462.523438 329.289062 C 460.730469 328.703125 459.453125 326.988281 459.511719 325.003906 C 459.582031 322.589844 461.597656 320.6875 464.011719 320.757812 C 476.410156 321.121094 488.878906 321.21875 501.074219 321.050781 C 503.484375 321.019531 505.476562 322.949219 505.507812 325.363281 C 505.539062 327.78125 503.609375 329.769531 501.191406 329.796875 C 488.875 329.96875 476.277344 329.871094 463.757812 329.507812 C 463.328125 329.492188 462.910156 329.417969 462.523438 329.289062 Z M 536.984375 328.226562 C 535.328125 327.683594 534.085938 326.171875 533.976562 324.324219 C 533.835938 321.914062 535.671875 319.839844 538.085938 319.699219 C 550.496094 318.957031 562.902344 317.921875 574.972656 316.609375 C 577.371094 316.351562 579.535156 318.082031 579.796875 320.484375 C 580.054688 322.890625 578.320312 325.046875 575.917969 325.308594 C 563.707031 326.632812 551.152344 327.683594 538.605469 328.429688 C 538.039062 328.46875 537.492188 328.390625 536.984375 328.226562 Z M 610.96875 320.148438 C 609.464844 319.65625 608.277344 318.359375 608.007812 316.6875 C 607.621094 314.304688 609.238281 312.058594 611.625 311.671875 C 623.898438 309.679688 636.109375 307.351562 647.929688 304.738281 C 650.292969 304.214844 652.621094 305.707031 653.144531 308.0625 C 653.664062 310.421875 652.175781 312.757812 649.816406 313.277344 C 637.839844 315.921875 625.457031 318.285156 613.023438 320.304688 C 612.3125 320.421875 611.613281 320.355469 610.96875 320.148438 Z M 683.585938 304.042969 C 682.25 303.605469 681.148438 302.539062 680.734375 301.089844 C 680.070312 298.765625 681.414062 296.34375 683.738281 295.675781 C 695.671875 292.257812 707.484375 288.445312 718.851562 284.351562 C 721.125 283.527344 723.628906 284.710938 724.453125 286.984375 C 725.269531 289.257812 724.09375 291.761719 721.820312 292.585938 C 710.269531 296.75 698.273438 300.617188 686.152344 304.089844 C 685.273438 304.339844 684.386719 304.304688 683.585938 304.042969 Z M 753.472656 278.78125 C 752.335938 278.410156 751.359375 277.582031 750.835938 276.402344 C 749.855469 274.195312 750.847656 271.609375 753.058594 270.628906 C 764.355469 265.613281 775.472656 260.152344 786.113281 254.40625 C 788.234375 253.257812 790.890625 254.046875 792.039062 256.175781 C 793.1875 258.300781 792.394531 260.953125 790.269531 262.101562 C 779.4375 267.957031 768.109375 273.515625 756.609375 278.625 C 755.578125 279.082031 754.464844 279.109375 753.472656 278.78125 Z M 818.761719 243.441406 C 817.851562 243.144531 817.023438 242.542969 816.460938 241.671875 C 815.144531 239.648438 815.714844 236.933594 817.738281 235.617188 C 828.03125 228.914062 838.097656 221.734375 847.660156 214.265625 C 849.566406 212.78125 852.3125 213.117188 853.800781 215.023438 C 855.289062 216.929688 854.949219 219.679688 853.042969 221.164062 C 843.285156 228.78125 833.011719 236.109375 822.511719 242.945312 C 821.359375 243.703125 819.980469 243.839844 818.761719 243.441406 Z M 877.222656 197.78125 C 876.542969 197.558594 875.910156 197.167969 875.386719 196.605469 C 873.738281 194.839844 873.835938 192.070312 875.601562 190.421875 C 884.515625 182.113281 893.171875 173.300781 901.335938 164.222656 C 902.953125 162.425781 905.71875 162.277344 907.515625 163.894531 C 909.308594 165.511719 909.457031 168.273438 907.839844 170.070312 C 899.507812 179.335938 890.667969 188.335938 881.566406 196.820312 C 880.363281 197.949219 878.691406 198.261719 877.222656 197.78125 Z M 926.824219 142.65625 C 926.378906 142.511719 925.945312 142.289062 925.550781 141.992188 C 923.621094 140.535156 923.234375 137.792969 924.691406 135.867188 C 928.816406 130.390625 932.875 124.726562 936.753906 119.03125 C 938.113281 117.035156 940.839844 116.519531 942.832031 117.882812 C 944.828125 119.242188 945.34375 121.964844 943.984375 123.957031 C 940.023438 129.769531 935.882812 135.542969 931.675781 141.128906 C 930.523438 142.664062 928.554688 143.222656 926.824219 142.65625 Z M 926.824219 142.65625 " fill-opacity="1" fill-rule="nonzero"/></g></g></g></svg>